<?xml version="1.0" encoding="utf-8"?>
<svg version="1.1" xmlns="http://www.w3.org/2000/svg" xmlns:xlink="http://www.w3.org/1999/xlink" x="0px" y="0px"
	 viewBox="0 0 283.5 283.5" style="enable-background:new 0 0 283.5 283.5;" xml:space="preserve">
<style type="text/css">
	.st0{fill:#FFFFFF;}
	.st1{fill:#999999;}
	.st2{fill:#B9B9B9;}
	.st3{fill:#F16529;}
</style>
<rect x="23.6" y="27.4" class="st0" width="239.5" height="229.1"/>
<path class="st0" d="M18.2,18.3h247v247h-247V18.3z"/>
<path class="st1" d="M248,35.5v212.6H35.4V35.5H248 M265.7,17.7h-248v248h248V17.7z"/>
<g>
	<rect x="119.8" y="53.8" class="st2" width="46.8" height="67.4"/>
	<rect x="178.6" y="178.6" class="st2" width="52.8" height="51.4"/>
	<rect x="55.2" y="190.6" class="st2" width="52.8" height="39.4"/>
	<rect x="55.2" y="53.8" class="st2" width="52.8" height="18"/>
	<rect x="178.6" y="53.8" class="st2" width="52.8" height="51.4"/>
	<rect x="119.8" y="133.2" class="st2" width="46.8" height="96.9"/>
</g>
<path class="st0" d="M172.1,91.6c-2.3,0-4.6,0.9-6.4,2.6l-10.3,10.3c-1.7,1.7-2.6,4-2.6,6.4s0.9,4.7,2.6,6.4l27.4,27.4l-27.4,27.4
	c-3.5,3.5-3.5,9.2,0,12.7l10.3,10.3c1.8,1.8,4.1,2.6,6.4,2.6s4.6-0.9,6.4-2.6l44.1-44.1c3.5-3.5,3.5-9.2,0-12.7l-44.1-44.1
	C176.8,92.5,174.4,91.6,172.1,91.6L172.1,91.6z"/>
<path class="st0" d="M113.4,91.6c-2.4,0-4.7,0.9-6.4,2.6L63,138.3c-3.5,3.5-3.5,9.2,0,12.7l44.1,44.1c1.8,1.8,4.1,2.6,6.4,2.6
	s4.6-0.9,6.4-2.6l10.3-10.3c3.5-3.5,3.5-9.2,0-12.7l-27.4-27.4l27.4-27.4c3.5-3.5,3.5-9.2,0-12.7l-10.3-10.3
	C118.2,92.6,115.8,91.6,113.4,91.6L113.4,91.6z"/>
<g>
	<path class="st3" d="M123.8,178.5l-33.8-33.8l33.8-33.8l-10.3-10.3l-44.1,44.1l44.1,44.1L123.8,178.5z M161.9,178.5l33.8-33.8
		l-33.8-33.8l10.3-10.3l44.1,44.1l-44.1,44.1L161.9,178.5z"/>
</g>
<g>
	<path class="st2" d="M63.1,151.1c-3.5-3.5-3.5-9.2,0-12.7l44.1-44.1c0.3-0.3,0.5-0.5,0.8-0.7v-9.8H55.2v94.9h35.5L63.1,151.1z"/>
</g>
<g>
	<path class="st2" d="M201.4,117.2l21.2,21.2c3.5,3.5,3.5,9.2,0,12.7l-15.5,15.5h24.4v-49.4C231.5,117.2,201.4,117.2,201.4,117.2z"
		/>
</g>
</svg>
