<?xml version="1.0" encoding="utf-8"?>
<svg version="1.1" xmlns="http://www.w3.org/2000/svg" xmlns:xlink="http://www.w3.org/1999/xlink" x="0px" y="0px"
	 viewBox="0 0 256 256" style="enable-background:new 0 0 256 256;" xml:space="preserve">
<style type="text/css">
	.st0{fill:#CC6633;}
	.st1{opacity:0.3;}
	.st2{fill:#FFFFFF;}
</style>
<rect y="0" class="st0" width="256" height="256"/>
<title>EXT:codeblock</title>
<g class="st1">
	<rect x="104.6" y="39.9" class="st2" width="46.8" height="67.4"/>
	<rect x="163.4" y="164.7" class="st2" width="52.8" height="51.4"/>
	<rect x="39.9" y="176.7" class="st2" width="52.8" height="39.4"/>
	<rect x="39.9" y="39.9" class="st2" width="52.8" height="18"/>
	<rect x="163.4" y="39.9" class="st2" width="52.8" height="51.4"/>
	<rect x="104.6" y="119.3" class="st2" width="46.8" height="96.9"/>
</g>
<path class="st0" d="M156.9,77.7c-2.3,0-4.6,0.9-6.4,2.6l-10.3,10.3c-1.7,1.7-2.6,4-2.6,6.4c0,2.4,0.9,4.7,2.6,6.4l27.4,27.4
	l-27.4,27.4c-3.5,3.5-3.5,9.2,0,12.7l10.3,10.3c1.8,1.8,4.1,2.6,6.4,2.6s4.6-0.9,6.4-2.6l44.1-44.1c3.5-3.5,3.5-9.2,0-12.7
	l-44.1-44.1C161.5,78.6,159.2,77.7,156.9,77.7L156.9,77.7z"/>
<path class="st0" d="M98.2,77.7c-2.4,0-4.7,0.9-6.4,2.6l-44.1,44.1c-3.5,3.5-3.5,9.2,0,12.7l44.1,44.1c1.8,1.8,4.1,2.6,6.4,2.6
	c2.3,0,4.6-0.9,6.4-2.6l10.3-10.3c3.5-3.5,3.5-9.2,0-12.7l-27.4-27.4l27.4-27.4c3.5-3.5,3.5-9.2,0-12.7l-10.3-10.3
	C102.9,78.7,100.6,77.7,98.2,77.7L98.2,77.7z"/>
<title>ext_icon_crawler_transparent2</title>
<g>
	<path class="st2" d="M108.5,164.6l-33.8-33.8L108.5,97L98.2,86.7l-44.1,44.1l44.1,44.1L108.5,164.6z M146.6,164.6l33.8-33.8
		L146.6,97l10.3-10.3l44.1,44.1l-44.1,44.1C156.9,174.9,146.6,164.6,146.6,164.6z"/>
</g>
<g class="st1">
	<path class="st2" d="M47.8,137.2c-3.5-3.5-3.5-9.2,0-12.7l44.1-44.1c0.3-0.3,0.5-0.5,0.8-0.7v-9.8H39.9v94.9h35.5L47.8,137.2z"/>
</g>
<g class="st1">
	<path class="st2" d="M186.2,103.3l21.2,21.2c3.5,3.5,3.5,9.2,0,12.7l-15.5,15.5h24.4v-49.4H186.2z"/>
</g>
</svg>
